<?xml version="1.0" encoding="UTF-8"?>
<svg xmlns="http://www.w3.org/2000/svg" width="4997" height="3364" viewBox="-1381 510 4997 3364">
  <title>Untitled Threadwork - A0-roll</title>
  <desc>Generated by threadwork 1.5.0 (f0cef90c719d)</desc>
  <g font-family="monospace" text-rendering="geometricPrecision" shape-rendering="crispEdges">
    <rect x="-1381" y="510" width="4997" height="3364" fill="#ffffff" stroke="#999999" stroke-width="1"/>
    <line x1="2776" y1="3874" x2="2776" y2="3854" stroke="#9a9a9a" stroke-width="1"/>
    <line x1="1936" y1="3874" x2="1936" y2="3854" stroke="#9a9a9a" stroke-width="1"/>
    <line x1="1096" y1="3874" x2="1096" y2="3854" stroke="#9a9a9a" stroke-width="1"/>
    <line x1="256" y1="3874" x2="256" y2="3854" stroke="#9a9a9a" stroke-width="1"/>
    <line x1="-584" y1="3874" x2="-584" y2="3854" stroke="#9a9a9a" stroke-width="1"/>
    <line x1="3616" y1="2686" x2="3596" y2="2686" stroke="#9a9a9a" stroke-width="1"/>
    <line x1="3616" y1="1498" x2="3596" y2="1498" stroke="#9a9a9a" stroke-width="1"/>
    <rect x="-1341" y="550" width="4917" height="3284" fill="none" stroke="#777777" stroke-width="1"/>
    <rect x="2856" y="3690" width="720" height="144" fill="none" stroke="#777777" stroke-width="1"/>
    <line x1="2856" y1="3718" x2="3576" y2="3718" stroke="#777777" stroke-width="1"/>
    <line x1="2856" y1="3747" x2="3576" y2="3747" stroke="#777777" stroke-width="1"/>
    <line x1="2856" y1="3776" x2="3576" y2="3776" stroke="#777777" stroke-width="1"/>
    <line x1="2856" y1="3805" x2="3576" y2="3805" stroke="#777777" stroke-width="1"/>
    <line x1="3036" y1="3690" x2="3036" y2="3834" stroke="#777777" stroke-width="1"/>
    <line x1="3304" y1="3690" x2="3304" y2="3834" stroke="#777777" stroke-width="1"/>
    <text x="2868" y="3712" font-size="12" fill="#444444">threadwork</text>
    <text x="2988" y="3712" font-size="12" fill="#444444">Untitled Threadwork</text>
    <text x="3504" y="3712" font-size="12" fill="#444444">A0-roll</text>
    <text x="2868" y="3820" font-size="12" fill="#444444">build 2026-06-10</text>
    <rect x="3288" y="582" width="288" height="380" fill="none" stroke="#b0b0b0" stroke-width="1"/>
    <text x="3296" y="597" font-size="10" fill="#444444">Parts List</text>
    <line x1="3288" y1="582" x2="3576" y2="582" stroke="#b0b0b0" stroke-width="1"/>
    <line x1="3288" y1="602" x2="3576" y2="602" stroke="#b0b0b0" stroke-width="1"/>
    <line x1="3288" y1="622" x2="3576" y2="622" stroke="#b0b0b0" stroke-width="1"/>
    <line x1="3288" y1="642" x2="3576" y2="642" stroke="#b0b0b0" stroke-width="1"/>
    <line x1="3288" y1="662" x2="3576" y2="662" stroke="#b0b0b0" stroke-width="1"/>
    <line x1="3288" y1="682" x2="3576" y2="682" stroke="#b0b0b0" stroke-width="1"/>
    <line x1="3288" y1="702" x2="3576" y2="702" stroke="#b0b0b0" stroke-width="1"/>
    <line x1="3288" y1="722" x2="3576" y2="722" stroke="#b0b0b0" stroke-width="1"/>
    <line x1="3288" y1="742" x2="3576" y2="742" stroke="#b0b0b0" stroke-width="1"/>
    <line x1="3288" y1="762" x2="3576" y2="762" stroke="#b0b0b0" stroke-width="1"/>
    <line x1="3288" y1="782" x2="3576" y2="782" stroke="#b0b0b0" stroke-width="1"/>
    <line x1="3288" y1="802" x2="3576" y2="802" stroke="#b0b0b0" stroke-width="1"/>
    <line x1="3288" y1="822" x2="3576" y2="822" stroke="#b0b0b0" stroke-width="1"/>
    <line x1="3288" y1="842" x2="3576" y2="842" stroke="#b0b0b0" stroke-width="1"/>
    <line x1="3288" y1="862" x2="3576" y2="862" stroke="#b0b0b0" stroke-width="1"/>
    <line x1="3288" y1="882" x2="3576" y2="882" stroke="#b0b0b0" stroke-width="1"/>
    <line x1="3288" y1="902" x2="3576" y2="902" stroke="#b0b0b0" stroke-width="1"/>
    <line x1="3288" y1="922" x2="3576" y2="922" stroke="#b0b0b0" stroke-width="1"/>
    <line x1="3288" y1="942" x2="3576" y2="942" stroke="#b0b0b0" stroke-width="1"/>
    <line x1="3330" y1="582" x2="3330" y2="962" stroke="#b0b0b0" stroke-width="1"/>
    <line x1="3416" y1="582" x2="3416" y2="962" stroke="#b0b0b0" stroke-width="1"/>
    <text x="3294" y="616" font-size="10" fill="#444444">1</text>
    <text x="3336" y="616" font-size="10" fill="#444444">New Node</text>
    <text x="3420" y="616" font-size="10" fill="#444444">Transformer</text>
    <text x="3294" y="636" font-size="10" fill="#444444">2</text>
    <text x="3336" y="636" font-size="10" fill="#444444">New Node</text>
    <text x="3420" y="636" font-size="10" fill="#444444">Transformer</text>
    <text x="3294" y="656" font-size="10" fill="#444444">3</text>
    <text x="3336" y="656" font-size="10" fill="#444444">New Node</text>
    <text x="3420" y="656" font-size="10" fill="#444444">Transformer</text>
    <text x="3294" y="676" font-size="10" fill="#444444">4</text>
    <text x="3336" y="676" font-size="10" fill="#444444">New Node</text>
    <text x="3420" y="676" font-size="10" fill="#444444">Transformer</text>
    <text x="3294" y="696" font-size="10" fill="#444444">5</text>
    <text x="3336" y="696" font-size="10" fill="#444444">New Node</text>
    <text x="3420" y="696" font-size="10" fill="#444444">Transformer</text>
    <text x="3294" y="716" font-size="10" fill="#444444">6</text>
    <text x="3336" y="716" font-size="10" fill="#444444">New Node</text>
    <text x="3420" y="716" font-size="10" fill="#444444">Transformer</text>
    <text x="3294" y="736" font-size="10" fill="#444444">7</text>
    <text x="3336" y="736" font-size="10" fill="#444444">New Node</text>
    <text x="3420" y="736" font-size="10" fill="#444444">Transformer</text>
    <text x="3294" y="756" font-size="10" fill="#444444">8</text>
    <text x="3336" y="756" font-size="10" fill="#444444">New Node</text>
    <text x="3420" y="756" font-size="10" fill="#444444">Sink</text>
    <text x="3294" y="776" font-size="10" fill="#444444">9</text>
    <text x="3336" y="776" font-size="10" fill="#444444">New Node</text>
    <text x="3420" y="776" font-size="10" fill="#444444">Transformer</text>
    <text x="3294" y="796" font-size="10" fill="#444444">10</text>
    <text x="3336" y="796" font-size="10" fill="#444444">New Node</text>
    <text x="3420" y="796" font-size="10" fill="#444444">Transformer</text>
    <text x="3294" y="816" font-size="10" fill="#444444">11</text>
    <text x="3336" y="816" font-size="10" fill="#444444">New Node</text>
    <text x="3420" y="816" font-size="10" fill="#444444">Transformer</text>
    <text x="3294" y="836" font-size="10" fill="#444444">12</text>
    <text x="3336" y="836" font-size="10" fill="#444444">New Node</text>
    <text x="3420" y="836" font-size="10" fill="#444444">Transformer</text>
    <text x="3294" y="856" font-size="10" fill="#444444">13</text>
    <text x="3336" y="856" font-size="10" fill="#444444">New Node</text>
    <text x="3420" y="856" font-size="10" fill="#444444">Sink</text>
    <text x="3294" y="876" font-size="10" fill="#444444">14</text>
    <text x="3336" y="876" font-size="10" fill="#444444">New Node</text>
    <text x="3420" y="876" font-size="10" fill="#444444">Transformer</text>
    <text x="3294" y="896" font-size="10" fill="#444444">15</text>
    <text x="3336" y="896" font-size="10" fill="#444444">New Node</text>
    <text x="3420" y="896" font-size="10" fill="#444444">Transformer</text>
    <text x="3294" y="916" font-size="10" fill="#444444">16</text>
    <text x="3336" y="916" font-size="10" fill="#444444">New Node</text>
    <text x="3420" y="916" font-size="10" fill="#444444">CompositeWorke</text>
    <text x="3294" y="936" font-size="10" fill="#444444">17</text>
    <text x="3336" y="936" font-size="10" fill="#444444">New Node</text>
    <text x="3420" y="936" font-size="10" fill="#444444">Sink</text>
    <rect x="203" y="952" width="2163" height="1194" fill="#fafafa" stroke="#222222" stroke-width="2.20" stroke-dasharray="24 8 4 8"/>
    <text x="215" y="1010" font-size="12" fill="#222222">New Node</text>
    <text x="215" y="1030" font-size="12" fill="#555555">CompositeWorker</text>
    <text x="215" y="1046" font-size="11" fill="#666666">lang: plain | tech: none</text>
    <rect x="2988" y="598" width="220" height="198" fill="#ffffff" stroke="#222222" stroke-width="2"/>
    <text x="3000" y="620" font-size="13" fill="#222222">New Node</text>
    <text x="3000" y="640" font-size="12" fill="#555555">Sink</text>
    <text x="3000" y="656" font-size="11" fill="#666666">lang: plain | tech: none</text>
    <rect x="-1293" y="633" width="220" height="108" fill="#ffffff" stroke="#222222" stroke-width="2"/>
    <text x="-1281" y="655" font-size="13" fill="#222222">New Node</text>
    <text x="-1281" y="675" font-size="12" fill="#555555">Transformer</text>
    <text x="-1281" y="691" font-size="11" fill="#666666">lang: plain | tech: none</text>
    <rect x="412" y="1068" width="220" height="108" fill="#ffffff" stroke="#222222" stroke-width="2"/>
    <text x="424" y="1090" font-size="13" fill="#222222">New Node</text>
    <text x="424" y="1110" font-size="12" fill="#555555">Transformer</text>
    <text x="424" y="1126" font-size="11" fill="#666666">lang: plain | tech: none</text>
    <rect x="1419" y="1148" width="220" height="90" fill="#ffffff" stroke="#222222" stroke-width="2"/>
    <text x="1431" y="1170" font-size="13" fill="#222222">New Node</text>
    <text x="1431" y="1190" font-size="12" fill="#555555">Transformer</text>
    <text x="1431" y="1206" font-size="11" fill="#666666">lang: plain | tech: none</text>
    <rect x="904" y="1203" width="220" height="138" fill="#ffffff" stroke="#222222" stroke-width="2"/>
    <text x="916" y="1225" font-size="13" fill="#222222">New Node</text>
    <text x="916" y="1245" font-size="12" fill="#555555">Transformer</text>
    <text x="916" y="1261" font-size="11" fill="#666666">lang: plain | tech: none</text>
    <rect x="1408" y="1309" width="220" height="90" fill="#ffffff" stroke="#222222" stroke-width="2"/>
    <text x="1420" y="1331" font-size="13" fill="#222222">New Node</text>
    <text x="1420" y="1351" font-size="12" fill="#555555">Transformer</text>
    <text x="1420" y="1367" font-size="11" fill="#666666">lang: plain | tech: none</text>
    <rect x="235" y="1401" width="220" height="108" fill="#ffffff" stroke="#222222" stroke-width="2"/>
    <text x="247" y="1423" font-size="13" fill="#222222">New Node</text>
    <text x="247" y="1443" font-size="12" fill="#555555">Transformer</text>
    <text x="247" y="1459" font-size="11" fill="#666666">lang: plain | tech: none</text>
    <rect x="1396" y="1433" width="220" height="90" fill="#ffffff" stroke="#222222" stroke-width="2"/>
    <text x="1408" y="1455" font-size="13" fill="#222222">New Node</text>
    <text x="1408" y="1475" font-size="12" fill="#555555">Transformer</text>
    <text x="1408" y="1491" font-size="11" fill="#666666">lang: plain | tech: none</text>
    <rect x="1037" y="1462" width="220" height="90" fill="#ffffff" stroke="#222222" stroke-width="2"/>
    <text x="1049" y="1484" font-size="13" fill="#222222">New Node</text>
    <text x="1049" y="1504" font-size="12" fill="#555555">Sink</text>
    <text x="1049" y="1520" font-size="11" fill="#666666">lang: plain | tech: none</text>
    <rect x="646" y="1529" width="220" height="108" fill="#ffffff" stroke="#222222" stroke-width="2"/>
    <text x="658" y="1551" font-size="13" fill="#222222">New Node</text>
    <text x="658" y="1571" font-size="12" fill="#555555">Transformer</text>
    <text x="658" y="1587" font-size="11" fill="#666666">lang: plain | tech: none</text>
    <rect x="2114" y="1592" width="220" height="90" fill="#ffffff" stroke="#222222" stroke-width="2"/>
    <text x="2126" y="1614" font-size="13" fill="#222222">New Node</text>
    <text x="2126" y="1634" font-size="12" fill="#555555">Sink</text>
    <text x="2126" y="1650" font-size="11" fill="#666666">lang: plain | tech: none</text>
    <rect x="1442" y="1600" width="220" height="108" fill="#ffffff" stroke="#222222" stroke-width="2"/>
    <text x="1454" y="1622" font-size="13" fill="#222222">New Node</text>
    <text x="1454" y="1642" font-size="12" fill="#555555">Transformer</text>
    <text x="1454" y="1658" font-size="11" fill="#666666">lang: plain | tech: none</text>
    <rect x="1209" y="1703" width="220" height="108" fill="#ffffff" stroke="#222222" stroke-width="2"/>
    <text x="1221" y="1725" font-size="13" fill="#222222">New Node</text>
    <text x="1221" y="1745" font-size="12" fill="#555555">Transformer</text>
    <text x="1221" y="1761" font-size="11" fill="#666666">lang: plain | tech: none</text>
    <rect x="668" y="1796" width="220" height="90" fill="#ffffff" stroke="#222222" stroke-width="2"/>
    <text x="680" y="1818" font-size="13" fill="#222222">New Node</text>
    <text x="680" y="1838" font-size="12" fill="#555555">Transformer</text>
    <text x="680" y="1854" font-size="11" fill="#666666">lang: plain | tech: none</text>
    <rect x="1650" y="1947" width="220" height="108" fill="#ffffff" stroke="#222222" stroke-width="2"/>
    <text x="1662" y="1969" font-size="13" fill="#222222">New Node</text>
    <text x="1662" y="1989" font-size="12" fill="#555555">Transformer</text>
    <text x="1662" y="2005" font-size="11" fill="#666666">lang: plain | tech: none</text>
    <rect x="335" y="1990" width="220" height="108" fill="#ffffff" stroke="#222222" stroke-width="2"/>
    <text x="347" y="2012" font-size="13" fill="#222222">New Node</text>
    <text x="347" y="2032" font-size="12" fill="#555555">Transformer</text>
    <text x="347" y="2048" font-size="11" fill="#666666">lang: plain | tech: none</text>
    <path d="M 652 1096 L 698 1096 L 833 1231 L 858 1231 L 904 1231" fill="none" stroke="#222222" stroke-width="1.50" stroke-linejoin="miter"/>
    <polygon points="835.07,1233.07 817.39,1222.46 824.46,1215.39" fill="#222222" stroke="#222222" stroke-width="1"/>
    <polygon points="652,1091 676,1091 682,1096 676,1101 652,1101" fill="#222222" stroke="#222222" stroke-width="1"/>
    <polygon points="904,1226 898,1226 874,1231 898,1236 904,1236" fill="#222222" stroke="#222222" stroke-width="1"/>
    <rect x="681" y="1148" width="186" height="14" fill="#fdfdfd" stroke="none"/>
    <text x="684" y="1158" font-size="10" fill="#222222">New Node -&gt; New Node</text>
    <path d="M 1144 1231 L 1190 1231 L 1245 1176 L 1373 1176 L 1419 1176" fill="none" stroke="#222222" stroke-width="1.50" stroke-linejoin="miter"/>
    <polygon points="1354,1176 1334,1181 1334,1171" fill="#222222" stroke="#222222" stroke-width="1"/>
    <polygon points="1144,1226 1168,1226 1174,1231 1168,1236 1144,1236" fill="#222222" stroke="#222222" stroke-width="1"/>
    <polygon points="1419,1171 1413,1171 1389,1176 1413,1181 1419,1181" fill="#222222" stroke="#222222" stroke-width="1"/>
    <rect x="1177" y="1152" width="186" height="14" fill="#fdfdfd" stroke="none"/>
    <text x="1180" y="1162" font-size="10" fill="#222222">New Node -&gt; New Node</text>
    <path d="M 1144 1291 L 1190 1291 L 1350 1451 L 1350 1461 L 1396 1461" fill="none" stroke="#222222" stroke-width="1.50" stroke-linejoin="miter"/>
    <polygon points="1338.07,1439.07 1320.39,1428.46 1327.46,1421.39" fill="#222222" stroke="#222222" stroke-width="1"/>
    <polygon points="1144,1286 1168,1286 1174,1291 1168,1296 1144,1296" fill="#222222" stroke="#222222" stroke-width="1"/>
    <polygon points="1396,1456 1390,1456 1366,1461 1390,1466 1396,1466" fill="#222222" stroke="#222222" stroke-width="1"/>
    <rect x="1180" y="1350" width="186" height="14" fill="#fdfdfd" stroke="none"/>
    <text x="1183" y="1360" font-size="10" fill="#222222">New Node -&gt; New Node</text>
    <path d="M 1144 1261 L 1190 1261 L 1266 1337 L 1362 1337 L 1408 1337" fill="none" stroke="#222222" stroke-width="1.50" stroke-linejoin="miter"/>
    <polygon points="1344,1337 1324,1342 1324,1332" fill="#222222" stroke="#222222" stroke-width="1"/>
    <polygon points="1144,1256 1168,1256 1174,1261 1168,1266 1144,1266" fill="#222222" stroke="#222222" stroke-width="1"/>
    <polygon points="1408,1332 1402,1332 1378,1337 1402,1342 1408,1342" fill="#222222" stroke="#222222" stroke-width="1"/>
    <rect x="1168" y="1308" width="186" height="14" fill="#fdfdfd" stroke="none"/>
    <text x="1171" y="1318" font-size="10" fill="#222222">New Node -&gt; New Node</text>
    <path d="M 884 1261 L 838 1261 L 670 1429 L 501 1429 L 455 1429" fill="none" stroke="#222222" stroke-width="1.50" stroke-linejoin="miter"/>
    <polygon points="569,1429 589,1424 589,1434" fill="#222222" stroke="#222222" stroke-width="1"/>
    <polygon points="884,1256 860,1256 854,1261 860,1266 884,1266" fill="#222222" stroke="#222222" stroke-width="1"/>
    <polygon points="455,1424 461,1424 485,1429 461,1434 455,1434" fill="#222222" stroke="#222222" stroke-width="1"/>
    <rect x="601" y="1380" width="186" height="14" fill="#fdfdfd" stroke="none"/>
    <text x="604" y="1390" font-size="10" fill="#222222">New Node -&gt; New Node</text>
    <path d="M 475 1459 L 521 1459 L 600 1538 L 600 1557 L 646 1557" fill="none" stroke="#222222" stroke-width="1.50" stroke-linejoin="miter"/>
    <polygon points="600,1557 595,1537 605,1537" fill="#222222" stroke="#222222" stroke-width="1"/>
    <polygon points="475,1454 499,1454 505,1459 499,1464 475,1464" fill="#222222" stroke="#222222" stroke-width="1"/>
    <polygon points="646,1552 640,1552 616,1557 640,1562 646,1562" fill="#222222" stroke="#222222" stroke-width="1"/>
    <rect x="474" y="1481" width="186" height="14" fill="#fdfdfd" stroke="none"/>
    <text x="477" y="1491" font-size="10" fill="#222222">New Node -&gt; New Node</text>
    <path d="M 886 1557 L 932 1557 L 991 1498 L 991 1490 L 1037 1490" fill="none" stroke="#222222" stroke-width="1.50" stroke-linejoin="miter"/>
    <polygon points="1001,1490 981,1495 981,1485" fill="#222222" stroke="#222222" stroke-width="1"/>
    <polygon points="886,1552 910,1552 916,1557 910,1562 886,1562" fill="#222222" stroke="#222222" stroke-width="1"/>
    <polygon points="1037,1485 1031,1485 1007,1490 1031,1495 1037,1495" fill="#222222" stroke="#222222" stroke-width="1"/>
    <rect x="871" y="1500" width="186" height="14" fill="#fdfdfd" stroke="none"/>
    <text x="874" y="1510" font-size="10" fill="#222222">New Node -&gt; New Node</text>
    <path d="M 886 1587 L 932 1587 L 1076 1731 L 1163 1731 L 1209 1731" fill="none" stroke="#222222" stroke-width="1.50" stroke-linejoin="miter"/>
    <polygon points="1123,1731 1103,1736 1103,1726" fill="#222222" stroke="#222222" stroke-width="1"/>
    <polygon points="886,1582 910,1582 916,1587 910,1592 886,1592" fill="#222222" stroke="#222222" stroke-width="1"/>
    <polygon points="1209,1726 1203,1726 1179,1731 1203,1736 1209,1736" fill="#222222" stroke="#222222" stroke-width="1"/>
    <rect x="941" y="1665" width="186" height="14" fill="#fdfdfd" stroke="none"/>
    <text x="944" y="1675" font-size="10" fill="#222222">New Node -&gt; New Node</text>
    <path d="M 1189 1761 L 1143 1761 L 1080 1824 L 934 1824 L 888 1824" fill="none" stroke="#222222" stroke-width="1.50" stroke-linejoin="miter"/>
    <polygon points="959,1824 979,1819 979,1829" fill="#222222" stroke="#222222" stroke-width="1"/>
    <polygon points="1189,1756 1165,1756 1159,1761 1165,1766 1189,1766" fill="#222222" stroke="#222222" stroke-width="1"/>
    <polygon points="888,1819 894,1819 918,1824 894,1829 888,1829" fill="#222222" stroke="#222222" stroke-width="1"/>
    <rect x="958" y="1800" width="186" height="14" fill="#fdfdfd" stroke="none"/>
    <text x="961" y="1810" font-size="10" fill="#222222">New Node -&gt; New Node</text>
    <path d="M 648 1824 L 602 1824 L 602 2018 L 601 2018 L 555 2018" fill="none" stroke="#222222" stroke-width="1.50" stroke-linejoin="miter"/>
    <polygon points="602,2003 597,1983 607,1983" fill="#222222" stroke="#222222" stroke-width="1"/>
    <polygon points="648,1819 624,1819 618,1824 624,1829 648,1829" fill="#222222" stroke="#222222" stroke-width="1"/>
    <polygon points="555,2013 561,2013 585,2018 561,2023 555,2023" fill="#222222" stroke="#222222" stroke-width="1"/>
    <rect x="509" y="1897" width="186" height="14" fill="#fdfdfd" stroke="none"/>
    <text x="512" y="1907" font-size="10" fill="#222222">New Node -&gt; New Node</text>
    <path d="M 575 2048 L 621 2048 L 664 2005 L 1604 2005 L 1650 2005" fill="none" stroke="#222222" stroke-width="1.50" stroke-linejoin="miter"/>
    <polygon points="1386,2005 1366,2010 1366,2000" fill="#222222" stroke="#222222" stroke-width="1"/>
    <polygon points="575,2043 599,2043 605,2048 599,2053 575,2053" fill="#222222" stroke="#222222" stroke-width="1"/>
    <polygon points="1650,2000 1644,2000 1620,2005 1644,2010 1650,2010" fill="#222222" stroke="#222222" stroke-width="1"/>
    <rect x="1010" y="1981" width="186" height="14" fill="#fdfdfd" stroke="none"/>
    <text x="1013" y="1991" font-size="10" fill="#222222">New Node -&gt; New Node</text>
    <path d="M 1630 1975 L 1584 1975 L 1708 1851 L 1708 1658 L 1662 1658" fill="none" stroke="#222222" stroke-width="1.50" stroke-linejoin="miter"/>
    <polygon points="1708,1717 1713,1737 1703,1737" fill="#222222" stroke="#222222" stroke-width="1"/>
    <polygon points="1630,1970 1606,1970 1600,1975 1606,1980 1630,1980" fill="#222222" stroke="#222222" stroke-width="1"/>
    <polygon points="1662,1653 1668,1653 1692,1658 1668,1663 1662,1663" fill="#222222" stroke="#222222" stroke-width="1"/>
    <rect x="1615" y="1818" width="186" height="14" fill="#fdfdfd" stroke="none"/>
    <text x="1618" y="1828" font-size="10" fill="#222222">New Node -&gt; New Node</text>
    <path d="M 1682 1628 L 1728 1628 L 1728 1624 L 2068 1624 L 2068 1620 L 2114 1620" fill="none" stroke="#222222" stroke-width="1.50" stroke-linejoin="miter"/>
    <polygon points="2018,1624 1998,1629 1998,1619" fill="#222222" stroke="#222222" stroke-width="1"/>
    <polygon points="1682,1623 1706,1623 1712,1628 1706,1633 1682,1633" fill="#222222" stroke="#222222" stroke-width="1"/>
    <polygon points="2114,1615 2108,1615 2084,1620 2108,1625 2114,1625" fill="#222222" stroke="#222222" stroke-width="1"/>
    <rect x="1805" y="1600" width="186" height="14" fill="#fdfdfd" stroke="none"/>
    <text x="1808" y="1610" font-size="10" fill="#222222">New Node -&gt; New Node</text>
    <path d="M -1053 691 L -1007 691 L -718 980 L 157 980 L 203 980" fill="none" stroke="#222222" stroke-width="1.50" stroke-linejoin="miter"/>
    <polygon points="-130,980 -150,985 -150,975" fill="#222222" stroke="#222222" stroke-width="1"/>
    <polygon points="-1053,686 -1029,686 -1023,691 -1029,696 -1053,696" fill="#222222" stroke="#222222" stroke-width="1"/>
    <polygon points="203,975 197,975 173,980 197,985 203,985" fill="#222222" stroke="#222222" stroke-width="1"/>
    <rect x="-577" y="956" width="186" height="14" fill="#fdfdfd" stroke="none"/>
    <text x="-574" y="966" font-size="10" fill="#222222">New Node -&gt; New Node</text>
    <path d="M 2386 1070 L 2432 1070 L 2756 746 L 2942 746 L 2988 746" fill="none" stroke="#222222" stroke-width="1.50" stroke-linejoin="miter"/>
    <polygon points="2813,746 2793,751 2793,741" fill="#222222" stroke="#222222" stroke-width="1"/>
    <polygon points="2386,1065 2410,1065 2416,1070 2410,1075 2386,1075" fill="#222222" stroke="#222222" stroke-width="1"/>
    <polygon points="2988,741 2982,741 2958,746 2982,751 2988,751" fill="#222222" stroke="#222222" stroke-width="1"/>
    <rect x="2566" y="818" width="186" height="14" fill="#fdfdfd" stroke="none"/>
    <text x="2569" y="828" font-size="10" fill="#222222">New Node -&gt; New Node</text>
    <path d="M 2386 1010 L 2432 1010 L 2756 686 L 2942 686 L 2988 686" fill="none" stroke="#222222" stroke-width="1.50" stroke-linejoin="miter"/>
    <polygon points="2813,686 2793,691 2793,681" fill="#222222" stroke="#222222" stroke-width="1"/>
    <polygon points="2386,1005 2410,1005 2416,1010 2410,1015 2386,1015" fill="#222222" stroke="#222222" stroke-width="1"/>
    <polygon points="2988,681 2982,681 2958,686 2982,691 2988,691" fill="#222222" stroke="#222222" stroke-width="1"/>
    <rect x="2566" y="758" width="186" height="14" fill="#fdfdfd" stroke="none"/>
    <text x="2569" y="768" font-size="10" fill="#222222">New Node -&gt; New Node</text>
    <path d="M 2386 1040 L 2432 1040 L 2756 716 L 2942 716 L 2988 716" fill="none" stroke="#222222" stroke-width="1.50" stroke-linejoin="miter"/>
    <polygon points="2813,716 2793,721 2793,711" fill="#222222" stroke="#222222" stroke-width="1"/>
    <polygon points="2386,1035 2410,1035 2416,1040 2410,1045 2386,1045" fill="#222222" stroke="#222222" stroke-width="1"/>
    <polygon points="2988,711 2982,711 2958,716 2982,721 2988,721" fill="#222222" stroke="#222222" stroke-width="1"/>
    <rect x="2566" y="788" width="186" height="14" fill="#fdfdfd" stroke="none"/>
    <text x="2569" y="798" font-size="10" fill="#222222">New Node -&gt; New Node</text>
    <path d="M 2386 980 L 2432 980 L 2756 656 L 2942 656 L 2988 656" fill="none" stroke="#222222" stroke-width="1.50" stroke-linejoin="miter"/>
    <polygon points="2813,656 2793,661 2793,651" fill="#222222" stroke="#222222" stroke-width="1"/>
    <polygon points="2386,975 2410,975 2416,980 2410,985 2386,985" fill="#222222" stroke="#222222" stroke-width="1"/>
    <polygon points="2988,651 2982,651 2958,656 2982,661 2988,661" fill="#222222" stroke="#222222" stroke-width="1"/>
    <rect x="2566" y="728" width="186" height="14" fill="#fdfdfd" stroke="none"/>
    <text x="2569" y="738" font-size="10" fill="#222222">New Node -&gt; New Node</text>
  </g>
</svg>
